<?xml version="1.0" encoding="UTF-8" standalone="no"?>
<!-- Created with Inkscape (http://www.inkscape.org/) -->

<svg
   xmlns:dc="http://purl.org/dc/elements/1.1/"
   xmlns:cc="http://creativecommons.org/ns#"
   xmlns:rdf="http://www.w3.org/1999/02/22-rdf-syntax-ns#"
   xmlns:svg="http://www.w3.org/2000/svg"
   xmlns="http://www.w3.org/2000/svg"
   xmlns:inkscape="http://www.inkscape.org/namespaces/inkscape"
   version="1.1"
   width="383.85001"
   height="180.35001"
   id="svg2"
   xml:space="preserve"><metadata
     id="metadata8"><rdf:RDF><cc:Work
         rdf:about=""><dc:format>image/svg+xml</dc:format><dc:type
           rdf:resource="http://purl.org/dc/dcmitype/StillImage" /></cc:Work></rdf:RDF></metadata><defs
     id="defs6"><clipPath
       id="clipPath18"><path
         d="M 0,1442.79 0,0 l 3070.83,0 0,1442.79 -3070.83,0 z"
         inkscape:connector-curvature="0"
         id="path20" /></clipPath></defs><g
     transform="matrix(1.25,0,0,-1.25,0,180.35)"
     id="g10"><g
       transform="scale(0.1,0.1)"
       id="g12"><g
         id="g14"><g
           clip-path="url(#clipPath18)"
           id="g16"><path
             d="m 0,0 3070.83,0 0,1442.79 L 0,1442.79 0,0 z"
             inkscape:connector-curvature="0"
             id="path22"
             style="fill:#231f20;fill-opacity:0;fill-rule:nonzero;stroke:none" /><path
             d="m 855.738,468.906 c 66.598,2.102 104.239,12.668 104.239,94.621 l 0,139.2 c -0.129,25.644 1.296,35.601 -2.411,50.25 -3.054,11.949 -7.875,22.296 -40.265,20.089 -6.41,-0.457 -9.774,-0.562 -42.539,-4.074 l 0.043,35.278 c 0,0 159.095,37.652 199.155,47.699 16.23,4.082 26.67,6.207 31.3,6.207 1.18,-2.465 1.78,-5.082 1.78,-7.903 l 0,-286.636 c 0,-82.219 38.04,-92.485 100.8,-94.731 l 0,-36.625 -352.102,0 0,36.625"
             inkscape:connector-curvature="0"
             id="path24"
             style="fill:#ffffff;fill-opacity:1;fill-rule:nonzero;stroke:none" /><path
             d="m 1026.6,915.676 c 48.52,0 87.88,24.875 87.88,55.437 0,30.697 -39.36,55.477 -87.88,55.477 -48.612,0 -87.916,-24.78 -87.916,-55.477 0,-30.562 39.304,-55.437 87.916,-55.437"
             inkscape:connector-curvature="0"
             id="path26"
             style="fill:#ffffff;fill-opacity:1;fill-rule:nonzero;stroke:none" /><path
             d="m 694.711,706.203 c -2.399,33.406 -13.551,62.789 -55.695,62.789 -31.789,0 -62.012,-27.07 -62.012,-125.621 0,-92.969 23.875,-125.637 77.18,-125.637 48.468,0 66.824,33.411 79.5,71.594 L 841.121,570.266 C 804.453,477.18 742.449,420.609 637.441,420.609 c -125.765,0 -216.507,82.039 -216.507,222.762 0,129.574 87.597,222.727 214.929,222.727 103.407,0 168.59,-52.516 194.075,-151.18 l -135.227,-8.715"
             inkscape:connector-curvature="0"
             id="path28"
             style="fill:#ffffff;fill-opacity:1;fill-rule:nonzero;stroke:none" /><path
             d="m 1246.94,431.828 90.65,0 27.02,64.324 c 30.2,-50.613 80.04,-75.203 136.89,-75.203 96.25,0 175.91,82.637 175.91,226.406 0,103.106 -44.64,215.008 -162.43,215.008 -52.19,0 -91.74,-19.015 -117,-58.644 l -1.59,0 0,173.847 -149.45,0 0,-545.738 z M 1396.39,738.5 c 22.14,23.156 40.33,31.941 60.9,31.941 46.62,0 63.97,-42.253 63.97,-132.644 0,-89.477 -20.5,-129.414 -68.77,-129.414 -33.96,0 -56.1,26.367 -56.1,72.73 l 0,157.387"
             inkscape:connector-curvature="0"
             id="path30"
             style="fill:#ffffff;fill-opacity:1;fill-rule:nonzero;stroke:none" /><path
             d="m 2160.67,615.512 0,11.89 c 0,165.664 -98.01,238.91 -223.65,238.91 -138.31,0 -225.96,-93.109 -225.96,-222.804 0,-140.656 93.16,-222.567 225.96,-222.567 100.98,0 171.83,38.934 223.65,114.539 l -98.87,44.383 c -18.28,-38.054 -58.86,-61.843 -96.14,-61.843 -56.38,0 -98.47,37.207 -98.47,97.492 l 293.48,0 z m -287.98,80.906 c 0.74,46.367 19.04,82.27 69.93,82.27 42.83,0 63.55,-37.598 62.01,-82.27 l -131.94,0"
             inkscape:connector-curvature="0"
             id="path32"
             style="fill:#ffffff;fill-opacity:1;fill-rule:nonzero;stroke:none" /><path
             d="m 2209.44,855.5 149.39,0 -0.22,-66.227 1.68,0 c 30.12,47.758 92.19,73.993 149.38,77.18 l 0,-155.887 c -31.7,15.133 -59.57,21.496 -80.84,21.496 -27.8,0 -47.75,-10.339 -70,-28.601 l 0,-271.731 -149.39,0 0,423.77"
             inkscape:connector-curvature="0"
             id="path34"
             style="fill:#ffffff;fill-opacity:1;fill-rule:nonzero;stroke:none" /><path
             d="m 2580.49,834.328 13.41,0 c 3.47,0 6.1,0.895 7.83,2.688 1.69,1.746 2.56,3.953 2.56,6.574 0,2.707 -0.93,4.738 -2.73,6.129 -1.84,1.371 -4.07,2.086 -6.84,2.086 l -14.23,0 0,-17.477 z m 32.94,-28.363 -8.49,0 -10.13,22.273 -14.32,0 0,-22.273 -7.6,0 0,52.308 22,0 c 5.91,0 10.35,-1.558 13.3,-4.585 2.93,-3.071 4.39,-6.473 4.39,-10.188 0,-2.773 -0.78,-5.441 -2.4,-8.02 -1.61,-2.503 -4.17,-4.351 -7.61,-5.429 l 10.86,-24.086 z m 17.32,26.137 c 0,10.601 -3.76,19.703 -11.28,27.253 -7.56,7.493 -16.63,11.301 -27.25,11.301 -10.56,0 -19.63,-3.808 -27.2,-11.34 -7.53,-7.566 -11.32,-16.636 -11.32,-27.214 0,-10.602 3.77,-19.664 11.25,-27.215 7.55,-7.512 16.64,-11.282 27.27,-11.282 10.56,0 19.65,3.786 27.23,11.297 7.51,7.567 11.3,16.649 11.3,27.2 m 6.46,0 c 0,-12.352 -4.42,-22.93 -13.2,-31.719 -8.86,-8.836 -19.43,-13.238 -31.79,-13.238 -12.32,0 -22.97,4.402 -31.8,13.238 -8.76,8.789 -13.17,19.367 -13.17,31.719 0,12.347 4.41,22.902 13.17,31.757 8.83,8.836 19.48,13.223 31.8,13.223 12.36,0 22.93,-4.387 31.79,-13.223 8.78,-8.855 13.2,-19.41 13.2,-31.757"
             inkscape:connector-curvature="0"
             id="path36"
             style="fill:#ffffff;fill-opacity:1;fill-rule:nonzero;stroke:none" /></g></g></g></g></svg>